<svg xmlns="http://www.w3.org/2000/svg" xml:space="preserve" viewBox="0 0 128 128" width="24" height="24"><path fill="transparent" d="M74 129H1V1h128v128H74m2.62-111.402c-4.504 1.587-6.552 4.943-6.595 9.541-.077 7.995-.153 15.994.026 23.985.133 5.957 3.82 9.69 9.753 9.82 8.49.185 16.992.186 25.483-.005 5.697-.129 9.479-3.782 9.634-9.407.23-8.322.221-16.66.006-24.982-.146-5.644-3.892-9.394-9.557-9.474-9.317-.132-18.639.127-28.75.522M20.082 70.159c-3.387 2.107-5.058 5.19-5.072 9.144-.029 7.82-.139 15.645.033 23.462.136 6.209 3.809 10.025 9.931 10.179 8.315.21 16.642.193 24.958.005 5.958-.134 9.809-3.763 9.984-9.595a400.5 400.5 0 0 0-.02-24.955c-.154-4.806-2.884-8.797-7.745-8.957-10.417-.344-20.866.232-32.07.717m39.919-34.617c-.002-2.496.115-5-.03-7.487-.398-6.85-4.21-10.797-11.079-10.999-7.648-.223-15.315-.246-22.96.01-6.8.229-10.688 4.283-10.883 11.172-.202 7.15-.2 14.314-.002 21.464.196 7.093 4.205 11.071 11.322 11.253 7.317.188 14.645.16 21.964.011 7.599-.155 11.484-4.222 11.651-11.957.09-4.159.017-8.32.017-13.467m25.775 34.387c-5.918 1.767-10.18 5.744-13.095 10.901-5.971 10.565-1.82 23.625 9.041 29.516 10.962 5.946 24.611 1.94 30.582-9 4.237-7.764 3.943-15.554-1.232-22.557-6.03-8.162-14.229-11.746-25.296-8.86z"/><path fill="#47CE37" d="M77.015 17.447c9.716-.244 19.038-.503 28.355-.371 5.665.08 9.41 3.83 9.557 9.474.215 8.323.224 16.66-.006 24.982-.155 5.625-3.937 9.278-9.634 9.407-8.49.191-16.992.19-25.483.004-5.932-.13-9.62-3.862-9.753-9.819-.18-7.991-.103-15.99-.026-23.985.043-4.598 2.09-7.954 6.99-9.692z"/><path fill="#D6133B" d="M20.467 70.016c10.82-.342 21.268-.918 31.685-.574 4.861.16 7.59 4.151 7.746 8.957a400.5 400.5 0 0 1 .02 24.955c-.176 5.832-4.027 9.46-9.985 9.595-8.316.188-16.643.204-24.958-.005-6.122-.154-9.795-3.97-9.931-10.18-.172-7.816-.062-15.64-.033-23.461.014-3.955 1.685-7.037 5.456-9.287z"/><path fill="#FCD90B" d="M60 36.035c0 4.653.074 8.815-.016 12.974-.167 7.735-4.052 11.802-11.65 11.957-7.32.15-14.648.177-21.965-.01-7.117-.183-11.126-4.161-11.322-11.254-.197-7.15-.2-14.315.002-21.464.195-6.89 4.083-10.943 10.882-11.172 7.646-.256 15.313-.233 22.961-.01 6.87.202 10.681 4.149 11.08 10.999.144 2.487.027 4.99.029 7.98z"/><path fill="#EEE" d="M86.171 69.817c10.672-2.774 18.871.81 24.901 8.972 5.175 7.003 5.469 14.793 1.232 22.557-5.97 10.94-19.62 14.946-30.582 9-10.86-5.89-15.012-18.95-9.04-29.516 2.914-5.157 7.176-9.134 13.49-11.013z"/></svg>